<?xml version="1.0" encoding="UTF-8" standalone="no"?>
<svg
   xmlns:dc="http://purl.org/dc/elements/1.1/"
   xmlns:cc="http://creativecommons.org/ns#"
   xmlns:rdf="http://www.w3.org/1999/02/22-rdf-syntax-ns#"
   xmlns:svg="http://www.w3.org/2000/svg"
   xmlns="http://www.w3.org/2000/svg"
   xmlns:sodipodi="http://sodipodi.sourceforge.net/DTD/sodipodi-0.dtd"
   xmlns:inkscape="http://www.inkscape.org/namespaces/inkscape"
   inkscape:export-ydpi="3"
   inkscape:export-xdpi="3"
   inkscape:export-filename="C:\Users\matt\source\repos\tf2_bot_detector\staging\images\game_ban_icon_16.png"
   inkscape:version="1.0 (4035a4fb49, 2020-05-01)"
   sodipodi:docname="game_ban_icon.svg"
   version="1.1"
   width="512"
   viewBox="0 0 512 512"
   height="512"
   enable-background="new 0 0 512 512"
   id="Capa_1">
  <metadata
     id="metadata1152">
    <rdf:RDF>
      <cc:Work
         rdf:about="">
        <dc:format>image/svg+xml</dc:format>
        <dc:type
           rdf:resource="http://purl.org/dc/dcmitype/StillImage" />
        <dc:title></dc:title>
      </cc:Work>
    </rdf:RDF>
  </metadata>
  <defs
     id="defs1150" />
  <sodipodi:namedview
     inkscape:current-layer="Capa_1"
     inkscape:pagecheckerboard="true"
     showgrid="false"
     id="namedview1148"
     inkscape:window-height="480"
     inkscape:window-width="640"
     inkscape:pageshadow="2"
     inkscape:pageopacity="0"
     guidetolerance="10"
     gridtolerance="10"
     objecttolerance="10"
     borderopacity="1"
     bordercolor="#666666"
     pagecolor="#000000" />
  <path
     style="fill:#ffffff;fill-opacity:1;stroke:#000000;stroke-opacity:1;stroke-width:16;stroke-miterlimit:4;stroke-dasharray:none;stroke-linejoin:miter;stroke-linecap:round"
     inkscape:label="gavel"
     d="m 141.016,174.806 c -5.858,5.858 -15.355,5.858 -21.213,0 l -21.39,-21.39 c -5.858,-5.858 -5.858,-15.355 0,-21.213 L 226.222,4.393 c 5.856,-5.857 15.354,-5.858 21.213,0 l 21.39,21.39 c 5.858,5.858 5.858,15.355 0,21.213 z m 298.045,21.213 21.39,21.39 c 5.858,5.858 5.858,15.355 0,21.213 l -127.81,127.81 c -2.929,2.929 -6.768,4.394 -10.606,4.394 -3.838,0 -7.678,-1.464 -10.606,-4.394 l -21.39,-21.39 c -5.858,-5.858 -5.858,-15.355 0,-21.213 L 417.848,196.02 c 5.858,-5.859 15.355,-5.859 21.213,-0.001 z M 172.88983,185.33449 279.29333,78.930985 385.87358,185.51124 279.47008,291.91474 Z M 13.206,387.822 173.101,227.927 236.917,291.743 77.023,451.638 c -8.797,8.797 -20.353,13.196 -31.908,13.196 -11.555,0 -23.111,-4.398 -31.908,-13.196 C -4.388,434.044 -4.388,405.416 13.206,387.822 Z M 255.99,421.75 h 241 c 8.284,0 15,6.716 15,15 V 497 c 0,8.284 -6.716,15 -15,15 h -241 c -8.284,0 -15,-6.716 -15,-15 v -60.25 c 0,-8.284 6.715,-15 15,-15 z"
     id="path1141" />
</svg>
